<?xml version="1.0" ?><!DOCTYPE svg  PUBLIC '-//W3C//DTD SVG 1.1//EN'  'http://www.w3.org/Graphics/SVG/1.1/DTD/svg11.dtd'>
<svg width="33" height="33" viewBox="0 0 33 33" fill="none" xmlns="http://www.w3.org/2000/svg">
<path fill-rule="evenodd" clip-rule="evenodd" d="M27.6346 5.25087H23.4241C22.7541 5.25087 22.1115 4.98471 21.6377 4.51093C21.1639 4.03716 20.8978 3.39458 20.8978 2.72456C20.8978 2.05454 21.1639 1.41196 21.6377 0.938183C22.1115 0.464407 22.7541 0.198242 23.4241 0.198242H28.4767C29.5934 0.198242 30.6644 0.64185 31.454 1.43148C32.2436 2.2211 32.6873 3.29207 32.6873 4.40877V9.4614C32.6873 10.1314 32.4211 10.774 31.9473 11.2478C31.4735 11.7216 30.831 11.9877 30.1609 11.9877C29.4909 11.9877 28.8483 11.7216 28.3746 11.2478C27.9008 10.774 27.6346 10.1314 27.6346 9.4614V5.25087ZM9.95041 5.25087H5.73989V9.4614C5.73989 10.1314 5.47372 10.774 4.99995 11.2478C4.52617 11.7216 3.88359 11.9877 3.21357 11.9877C2.54355 11.9877 1.90097 11.7216 1.4272 11.2478C0.953421 10.774 0.687256 10.1314 0.687256 9.4614V4.40877C0.687256 3.29207 1.13086 2.2211 1.92049 1.43148C2.71012 0.64185 3.78108 0.198242 4.89778 0.198242H9.95041C10.6204 0.198242 11.263 0.464407 11.7368 0.938183C12.2106 1.41196 12.4767 2.05454 12.4767 2.72456C12.4767 3.39458 12.2106 4.03716 11.7368 4.51093C11.263 4.98471 10.6204 5.25087 9.95041 5.25087ZM9.95041 27.1456H5.73989V22.9351C5.73989 22.2651 5.47372 21.6225 4.99995 21.1487C4.52617 20.6749 3.88359 20.4088 3.21357 20.4088C2.54355 20.4088 1.90097 20.6749 1.4272 21.1487C0.953421 21.6225 0.687256 22.2651 0.687256 22.9351V27.9877C0.687256 29.1044 1.13086 30.1754 1.92049 30.965C2.71012 31.7546 3.78108 32.1982 4.89778 32.1982H9.95041C10.6204 32.1982 11.263 31.9321 11.7368 31.4583C12.2106 30.9845 12.4767 30.3419 12.4767 29.6719C12.4767 29.0019 12.2106 28.3593 11.7368 27.8856C11.263 27.4118 10.6204 27.1456 9.95041 27.1456ZM23.4241 27.1456H27.6346V22.9351C27.6346 22.2651 27.9008 21.6225 28.3746 21.1487C28.8483 20.6749 29.4909 20.4088 30.1609 20.4088C30.831 20.4088 31.4735 20.6749 31.9473 21.1487C32.4211 21.6225 32.6873 22.2651 32.6873 22.9351V27.9877C32.6873 29.1044 32.2436 30.1754 31.454 30.965C30.6644 31.7546 29.5934 32.1982 28.4767 32.1982H23.4241C22.7541 32.1982 22.1115 31.9321 21.6377 31.4583C21.1639 30.9845 20.8978 30.3419 20.8978 29.6719C20.8978 29.0019 21.1639 28.3593 21.6377 27.8856C22.1115 27.4118 22.7541 27.1456 23.4241 27.1456Z" fill="white"/>
</svg>
